<mxfile host="app.diagrams.net" modified="2021-02-19T10:20:18.643Z" agent="5.0 (Macintosh; Intel Mac OS X 11_2_1) AppleWebKit/537.36 (KHTML, like Gecko) Chrome/88.0.4324.182 Safari/537.36" etag="du4UKEqZTDtiqF1KLw2P" version="14.4.2" type="github">
  <diagram id="WpXSpNXp-I4iZ-xelN5j" name="Page-1">
    <mxGraphModel dx="946" dy="564" grid="1" gridSize="10" guides="1" tooltips="1" connect="1" arrows="1" fold="1" page="1" pageScale="1" pageWidth="827" pageHeight="1169" math="0" shadow="0">
      <root>
        <mxCell id="0" />
        <mxCell id="1" parent="0" />
        <mxCell id="jB5KRmb-R-Ja9BLFkrBw-3" value="" style="edgeStyle=orthogonalEdgeStyle;rounded=0;orthogonalLoop=1;jettySize=auto;html=1;" edge="1" parent="1" source="jB5KRmb-R-Ja9BLFkrBw-1" target="jB5KRmb-R-Ja9BLFkrBw-2">
          <mxGeometry relative="1" as="geometry" />
        </mxCell>
        <mxCell id="jB5KRmb-R-Ja9BLFkrBw-4" value="jar包" style="edgeLabel;html=1;align=center;verticalAlign=middle;resizable=0;points=[];" vertex="1" connectable="0" parent="jB5KRmb-R-Ja9BLFkrBw-3">
          <mxGeometry x="-0.15" relative="1" as="geometry">
            <mxPoint as="offset" />
          </mxGeometry>
        </mxCell>
        <mxCell id="jB5KRmb-R-Ja9BLFkrBw-1" value="User.java" style="rounded=0;whiteSpace=wrap;html=1;strokeColor=#FFCCFF;fillColor=#FFCCFF;" vertex="1" parent="1">
          <mxGeometry x="90" y="90" width="120" height="60" as="geometry" />
        </mxCell>
        <mxCell id="jB5KRmb-R-Ja9BLFkrBw-6" value="" style="edgeStyle=orthogonalEdgeStyle;rounded=0;orthogonalLoop=1;jettySize=auto;html=1;" edge="1" parent="1" source="jB5KRmb-R-Ja9BLFkrBw-2" target="jB5KRmb-R-Ja9BLFkrBw-5">
          <mxGeometry relative="1" as="geometry" />
        </mxCell>
        <mxCell id="jB5KRmb-R-Ja9BLFkrBw-7" value="运行" style="edgeLabel;html=1;align=center;verticalAlign=middle;resizable=0;points=[];" vertex="1" connectable="0" parent="jB5KRmb-R-Ja9BLFkrBw-6">
          <mxGeometry x="-0.4" relative="1" as="geometry">
            <mxPoint as="offset" />
          </mxGeometry>
        </mxCell>
        <mxCell id="jB5KRmb-R-Ja9BLFkrBw-2" value="User.class" style="ellipse;whiteSpace=wrap;html=1;rounded=0;" vertex="1" parent="1">
          <mxGeometry x="290" y="80" width="120" height="80" as="geometry" />
        </mxCell>
        <mxCell id="jB5KRmb-R-Ja9BLFkrBw-5" value="Java系统" style="shape=step;perimeter=stepPerimeter;whiteSpace=wrap;html=1;fixedSize=1;rounded=0;" vertex="1" parent="1">
          <mxGeometry x="290" y="240" width="120" height="80" as="geometry" />
        </mxCell>
      </root>
    </mxGraphModel>
  </diagram>
</mxfile>
